<svg width="1829" height="355" viewBox="0 0 1829 355" fill="none" xmlns="http://www.w3.org/2000/svg">
<g clip-path="url(#clip0_7_223)">
<path d="M203.093 315.272H114.468L107.316 348.238H0L91.8138 31.2754H222.171L325.506 348.255H211.443L203.093 315.289V315.272ZM187.186 251.893L155.002 123.834L127.574 251.893H187.186Z" fill="#FBFBFB"/>
<path d="M337.801 0H433.191V81.9922H337.801V0ZM337.801 111.577H433.191V348.255H337.801V111.577Z" fill="#FBFBFB"/>
<path d="M464.177 31.2754H591.364C674.828 31.2754 724.504 83.2601 724.504 155.954C724.504 228.648 676.413 285.282 591.364 285.282H563.548V348.255H464.195V31.2754H464.177ZM581.816 199.486C610.037 199.486 621.557 189.765 621.557 161.026C621.557 134.4 609.244 122.143 581.816 122.143H563.531V199.486H581.816Z" fill="#FBFBFB"/>
<path d="M836.964 223.576V348.255H741.574V111.577H813.112L832.983 137.78C853.258 112.422 873.922 106.928 892.207 106.928V218.927C873.129 219.773 855.637 221.041 836.964 223.576Z" fill="#FBFBFB"/>
<path d="M896.171 230.339C896.171 158.067 942.676 106.083 1025.33 106.083C1107.98 106.083 1154.1 158.067 1154.1 230.339C1154.1 302.61 1108.39 355.018 1025.33 355.018C942.271 355.018 896.171 301.765 896.171 230.339ZM1058.71 229.916C1058.71 202.022 1045.2 186.384 1025.33 186.384C1005.46 186.384 991.948 202.022 991.948 229.916C991.948 257.81 1005.86 274.716 1025.33 274.716C1044.8 274.716 1058.71 258.656 1058.71 229.916Z" fill="#FBFBFB"/>
<path d="M1620.36 320.079C1604.47 341.634 1581.41 353.045 1550.02 353.045C1505.91 353.045 1472.12 333.181 1472.12 287.536C1472.12 244.427 1500.73 222.872 1606.85 218.223C1600.1 203.43 1582.99 198.359 1563.53 198.359C1537.3 198.359 1508.69 206.812 1487.62 221.604L1503.12 126.087C1523.4 114.253 1553.21 107.491 1581.43 107.491C1656.14 107.491 1705.42 138.767 1705.42 227.521V348.819H1637.85L1620.36 320.079ZM1581.41 290.917C1589.76 290.917 1601.28 287.958 1610.02 283.732V251.189C1571.07 257.106 1561.93 264.291 1561.93 276.547C1561.93 285.845 1567.88 290.917 1581.39 290.917H1581.41Z" fill="#FBFBFB"/>
<path d="M1717.7 31.8564H1828.98L1817.85 222.044H1728.82L1717.69 31.8564H1717.7ZM1720.49 257.546H1826.2V348.836H1720.49V257.546Z" fill="#FBFBFB"/>
<path d="M1160.25 210.651L1234.27 136.654L1376.71 279.048L1302.69 353.046L1160.25 210.651Z" fill="#FBFBFB"/>
<path opacity="0.7" d="M1413.86 95.3936L1487.89 169.391L1304.17 353.045L1230.15 279.048L1413.86 95.3936Z" fill="#FBFBFB"/>
</g>
<defs>
<clipPath id="clip0_7_223">
<rect width="1829" height="355" fill="white"/>
</clipPath>
</defs>
</svg>
